<?xml version="1.0" encoding="utf-8"?>
<!-- Generator: Adobe Illustrator 25.2.3, SVG Export Plug-In . SVG Version: 6.00 Build 0)  -->
<svg version="1.1"
	 id="svg2" xmlns:cc="http://creativecommons.org/ns#" xmlns:dc="http://purl.org/dc/elements/1.1/" xmlns:rdf="http://www.w3.org/1999/02/22-rdf-syntax-ns#" xmlns:svg="http://www.w3.org/2000/svg"
	 xmlns="http://www.w3.org/2000/svg" xmlns:xlink="http://www.w3.org/1999/xlink" x="0px" y="0px" viewBox="0 0 1866.67 1866.67"
	 style="enable-background:new 0 0 1866.67 1866.67;" xml:space="preserve">
<style type="text/css">
	.st0{fill: url(#MyGradient);}
</style>
  <defs>
        <linearGradient id="MyGradient">
          <stop offset="5%" stop-color="#00caef" />
          <stop offset="95%" stop-color="#0095ff" />
        </linearGradient>
      </defs>
<path id="path14" class="st0" d="M951.96,0.77C945.75,0.44,939.51,0,933.25,0c-6.38,0-12.72,0.44-19.08,0.79
	C408.36,11.08,0,425.29,0,933.33c0,507.9,408.13,922,913.75,932.51c6.48,0.37,12.99,0.83,19.51,0.83c6.39,0,12.71-0.44,19.03-0.8
	c82.16-1.64,161.67-13.93,237.32-35.56l-15.78-55.19l-8.29-28.9l-18.37-64.22c-51.7,50.07-109.18,82.63-170.07,93.25v-338.22
	c33.82,0.39,67.45,1.24,100.72,2.52l-25.29-88.38c-25.02-0.77-50.15-1.34-75.44-1.64V991.92h415.37
	c-1.77,46.95-5.61,92.85-11.4,137.43l82.49,43.91c8.77-58.25,14.31-118.89,16.49-181.34h296.87
	c-7.49,108.66-35.44,211.81-80.27,305.42l77.32,41.17c59.39-122.6,92.71-260.08,92.71-405.19
	C1866.67,425.08,1457.99,10.75,951.96,0.77L951.96,0.77z M1564,370.67c-56.03,11.99-116.07,22.28-179.35,30.75
	c-16.89-41.79-35.79-81.55-56.81-118.67c-31.59-55.76-66.67-103.79-104.43-143.72C1355.43,187.36,1472.04,267.79,1564,370.67
	L1564,370.67z M541.36,496.72c110.19,12.07,227.74,19.05,348.21,20.4v387.3H473.39C476.25,756.74,500.79,617.23,541.36,496.72z
	 M889.58,91.59v338.03c-109.03-1.24-215.39-7.21-315.68-17.44C650.3,236.04,763.37,114.61,889.58,91.59z M977.08,91.43
	c128.91,22.48,242.42,143.08,318.3,320.52c-101.06,10.39-208.33,16.43-318.3,17.68L977.08,91.43z M643.23,139.05
	c-37.74,39.91-72.8,87.93-104.41,143.69c-21.02,37.09-39.9,76.88-56.82,118.67c-63.26-8.47-123.32-18.76-179.33-30.75
	C394.63,267.8,511.24,187.39,643.23,139.05L643.23,139.05z M242.25,446.73c64.49,15.29,134.81,28.29,209.49,38.8
	c-40.56,127.41-63.23,270.19-65.87,418.89H88.23C93.99,734.41,150.13,577.07,242.25,446.73z M386.66,991.92
	c4.93,138.03,27.23,270.36,65.09,389.28c-74.71,10.51-145.12,23.44-209.49,38.72c-86.75-122.72-141.59-269.38-152.5-428.03h296.91
	V991.92z M302.69,1496c55.98-11.96,116.05-22.26,179.31-30.72c16.92,41.78,35.79,81.58,56.81,118.66
	c31.6,55.74,66.65,103.74,104.39,143.65C511.21,1679.25,394.63,1598.85,302.69,1496z M889.58,1775.08
	c-126.18-23-239.27-144.42-315.68-320.59c100.37-10.25,206.83-16.19,315.68-17.45V1775.08z M889.58,1349.54
	c-120.3,1.37-237.89,8.37-348.19,20.47c-37.87-112.42-61.74-241.39-67.12-378.11h415.31V1349.54z M977.08,904.42V517.11
	c121.22-1.36,239.49-8.43,350.29-20.63c39.51,119.82,63.15,259.09,65.92,407.91H977.08V904.42z M1480.77,904.42
	c-2.61-148.71-25.32-291.5-65.85-418.89c74.72-10.49,145-23.48,209.49-38.8c92.11,130.35,148.25,287.7,154.01,457.69H1480.77"/>
<path id="path16" class="st0" d="M1757.57,1428.91l-680.14-362.1c-2.79-1.51-5.24-2.22-7.26-2.22c-0.71,0-1.37,0.1-1.97,0.29
	c-3.67,0.99-5.07,5.3-3.16,11.95l212.28,741.98c1.62,5.71,4.33,8.59,7.29,8.59c0.46,0,0.91-0.06,1.37-0.2
	c2.25-0.61,4.59-2.85,6.67-6.74l105.87-196.52c2.25-4.13,5.32-6.72,8.64-7.65c0.99-0.3,2.03-0.43,3.05-0.43
	c3.76,0,7.64,1.98,10.91,5.95l0.85,1.04l191.77,236.27c4,4.96,9.95,7.55,15.89,7.55c1.92,0,3.83-0.29,5.67-0.8
	c2.56-0.74,5.04-1.99,7.19-3.79l82.39-66.85c8.73-7.07,10.04-20,2.96-28.75l-193.23-238.09c-0.17-0.21-0.29-0.41-0.41-0.64
	c-6.44-8.53-3.39-17.86,7.13-20.95l214.69-62.58C1766.8,1441.1,1767.49,1434.21,1757.57,1428.91"/>
</svg>
